<svg width="100" height="100" viewBox="0 0 100 100" fill="none" xmlns="http://www.w3.org/2000/svg">
<circle cx="50" cy="50" r="50" fill="#FFCC3E"/>
<path d="M73.1862 44.0298C74.3245 42.2602 74.5645 40.0542 73.8334 38.0792C73.1023 36.1042 71.486 34.5913 69.4727 33.9979C67.4599 33.4046 65.286 33.8003 63.6077 35.0653C61.93 36.3304 60.9448 38.3164 60.9502 40.4235C60.9502 41.7124 61.3264 42.9732 62.0334 44.049C61.1894 44.4102 60.4023 44.8924 59.6962 45.4802C58.9349 44.9818 58.127 44.5602 57.2834 44.2207C59.0396 42.422 60.0163 39.998 60.0002 37.4786C59.9836 34.9589 58.9755 32.5481 57.1955 30.7724C55.416 28.9967 53.0091 28 50.5002 28C47.9912 28 45.5844 28.9967 43.8048 30.7724C42.0248 32.5481 41.0167 34.9589 41.0002 37.4786C40.984 39.998 41.9608 42.422 43.7169 44.2207C42.8734 44.5601 42.0655 44.9818 41.3042 45.4802C40.598 44.8924 39.8109 44.4102 38.9669 44.049C39.6739 42.9731 40.0501 41.7124 40.0501 40.4235C40.0556 38.3165 39.0704 36.3304 37.3926 35.0653C35.7144 33.8003 33.5405 33.4047 31.5276 33.9979C29.5143 34.5913 27.898 36.1041 27.1669 38.0792C26.4358 40.0543 26.6758 42.2602 27.8141 44.0298C26.0905 44.7586 24.6193 45.9823 23.5849 47.5467C22.551 49.1116 21.9992 50.9482 22 52.8266V56.6429C22 58.1613 22.6005 59.6171 23.6693 60.6909C24.7385 61.7643 26.188 62.3674 27.7 62.3674H35.3V64.2755C35.3 65.794 35.9005 67.2497 36.9693 68.3235C38.0385 69.3969 39.488 70 41 70H60C61.512 70 62.9615 69.3969 64.0307 68.3235C65.0995 67.2498 65.7 65.794 65.7 64.2755V62.3674H73.3C74.812 62.3674 76.2615 61.7643 77.3307 60.6909C78.3995 59.6171 79 58.1613 79 56.6429V52.8266C79.0008 50.9482 78.4491 49.1116 77.4151 47.5467C76.3807 45.9823 74.9095 44.7586 73.1859 44.0298H73.1862ZM67.6003 37.5613C68.3561 37.5613 69.0813 37.8628 69.6156 38.3995C70.1499 38.9362 70.4503 39.6646 70.4503 40.4235C70.4503 41.1824 70.15 41.9109 69.6156 42.4474C69.0812 42.984 68.356 43.2857 67.6003 43.2857C66.8447 43.2857 66.1193 42.9841 65.585 42.4474C65.0507 41.9108 64.7504 41.1824 64.7504 40.4235C64.7504 39.6646 65.0506 38.9361 65.585 38.3995C66.1194 37.8629 66.8447 37.5613 67.6003 37.5613V37.5613ZM50.5003 31.8368C52.0123 31.8368 53.4618 32.4399 54.531 33.5133C55.5998 34.587 56.2003 36.0428 56.2003 37.5613C56.2003 39.0797 55.5998 40.5355 54.531 41.6093C53.4619 42.6827 52.0123 43.2858 50.5003 43.2858C48.9884 43.2858 47.5388 42.6827 46.4696 41.6093C45.4009 40.5355 44.8003 39.0797 44.8003 37.5613C44.8003 36.0428 45.4009 34.5871 46.4696 33.5133C47.5388 32.4399 48.9884 31.8368 50.5003 31.8368ZM33.4003 37.5613C34.1561 37.5613 34.8813 37.8628 35.4156 38.3995C35.9499 38.9362 36.2503 39.6646 36.2503 40.4235C36.2503 41.1824 35.95 41.9109 35.4156 42.4474C34.8813 42.984 34.156 43.2857 33.4003 43.2857C32.6447 43.2857 31.9193 42.9841 31.385 42.4474C30.8507 41.9108 30.5504 41.1824 30.5504 40.4235C30.5504 39.6646 30.8506 38.9361 31.385 38.3995C31.9194 37.8629 32.6447 37.5613 33.4003 37.5613ZM27.7003 58.551C27.1965 58.551 26.713 58.35 26.3568 57.9922C26.0005 57.6345 25.8003 57.1489 25.8003 56.6429V52.8266C25.8003 51.3081 26.4009 49.8523 27.4696 48.7785C28.5388 47.7052 29.9884 47.1021 31.5003 47.1021H35.3003C36.4089 47.1089 37.4896 47.4552 38.3971 48.0945C36.3923 50.4873 35.2952 53.5153 35.3003 56.6428V58.551L27.7003 58.551ZM61.9003 64.2755C61.9003 64.7815 61.7001 65.2671 61.3439 65.6249C60.9877 65.9826 60.5042 66.1837 60.0003 66.1837H41.0003C40.4965 66.1837 40.013 65.9826 39.6568 65.6249C39.3005 65.2671 39.1003 64.7815 39.1003 64.2755V56.6429C39.1003 54.1124 40.1012 51.6859 41.8829 49.8966C43.6646 48.1073 46.0807 47.1021 48.6003 47.1021H52.4003C54.9199 47.1021 57.3361 48.1073 59.1177 49.8966C60.8994 51.6859 61.9003 54.1124 61.9003 56.6429V64.2755ZM75.2003 56.6429C75.2003 57.1489 75.0001 57.6345 74.6439 57.9922C74.2876 58.35 73.8042 58.551 73.3003 58.551H65.7003V56.6429C65.7054 53.5152 64.6082 50.4874 62.6035 48.0945C63.5111 47.4552 64.5917 47.1089 65.7003 47.1021H69.5003C71.0123 47.1021 72.4618 47.7052 73.531 48.7786C74.5998 49.8524 75.2003 51.3081 75.2003 52.8266V56.6429Z" fill="black"/>
</svg>
