<svg width="100" height="100" viewBox="0 0 100 100" fill="none" xmlns="http://www.w3.org/2000/svg">
<circle cx="50" cy="50" r="50" fill="#FFCC3E"/>
<path d="M50.4861 27.6016C42.5071 27.6016 36.0479 34.0608 36.0479 42.0398C36.0479 45.6873 37.8716 48.499 39.4674 51.0067C39.6954 51.3107 39.8474 51.6146 40.0754 51.9186C41.2152 53.8943 42.1271 56.0221 42.583 58.2258C42.811 59.2137 42.963 60.2016 43.039 61.1894C43.191 62.7852 44.4828 64.0771 46.1546 64.0771H54.8931C56.4889 64.0771 57.8567 62.7852 58.0087 61.1894C58.0847 60.2016 58.2367 59.2137 58.4647 58.2258C58.9966 55.9461 59.9085 53.8183 61.1243 51.8426C61.2763 51.5386 61.4283 51.3107 61.6563 51.0067C63.2521 48.499 64.9999 45.6873 64.9999 42.0398C64.9239 34.0608 58.4647 27.6016 50.4861 27.6016ZM53.9816 57.1624C53.8297 57.9223 53.6777 58.6822 53.5257 59.5181H47.4465C47.3705 58.7582 47.2185 57.9223 46.9905 57.1624C46.3826 54.4267 45.3187 51.843 43.8749 49.4873C43.6469 49.1833 43.4949 48.8034 43.267 48.4994C41.8991 46.3717 40.6073 44.3959 40.6073 42.0402C40.6073 36.5689 45.0147 32.1614 50.4861 32.1614C55.9574 32.1614 60.3649 36.5689 60.3649 42.0402C60.3649 44.3959 59.073 46.3717 57.7052 48.5754C57.5532 48.8794 57.3252 49.1074 57.1733 49.4113C55.7294 51.843 54.5896 54.4267 53.9816 57.1624Z" fill="black"/>
<path fill-rule="evenodd" clip-rule="evenodd" d="M40.2426 51.8082L40.2486 51.8186C41.3956 53.8068 42.3169 55.9539 42.7784 58.1831C43.0082 59.1791 43.1615 60.1755 43.2383 61.1722C43.382 62.6722 44.594 63.8771 46.1546 63.8771H54.8931C56.3808 63.8771 57.6659 62.6691 57.8094 61.1723C57.8863 60.1748 58.0398 59.1776 58.2698 58.1808C58.8064 55.8812 59.7256 53.7356 60.9494 51.7452C61.1063 51.4328 61.264 51.1967 61.4916 50.8929C63.0882 48.3839 64.7995 45.6197 64.7999 42.0409C64.7245 34.1708 58.3536 27.8016 50.4861 27.8016C42.6175 27.8016 36.2479 34.1712 36.2479 42.0398C36.2479 45.576 37.9918 48.3158 39.5764 50.8054L39.6321 50.8929C39.7491 51.0496 39.8465 51.2055 39.9392 51.3537L39.941 51.3566C40.0365 51.5095 40.1272 51.6544 40.2354 51.7986L40.2426 51.8082ZM39.4674 51.0067C39.4444 50.9705 39.4213 50.9343 39.3982 50.898C37.8194 48.4177 36.0479 45.6347 36.0479 42.0398C36.0479 34.0608 42.5071 27.6016 50.4861 27.6016C58.4647 27.6016 64.9239 34.0608 64.9999 42.0398C64.9999 45.6873 63.2521 48.499 61.6563 51.0067C61.4283 51.3107 61.2763 51.5386 61.1243 51.8426C59.9085 53.8183 58.9966 55.9461 58.4647 58.2258C58.2367 59.2137 58.0847 60.2016 58.0087 61.1894C57.8567 62.7852 56.4889 64.0771 54.8931 64.0771H46.1546C44.4828 64.0771 43.191 62.7852 43.039 61.1894C42.963 60.2016 42.811 59.2137 42.583 58.2258C42.1271 56.0221 41.2152 53.8943 40.0754 51.9186C39.9614 51.7666 39.8664 51.6146 39.7714 51.4626C39.6764 51.3107 39.5814 51.1587 39.4674 51.0067ZM53.6926 59.7181H47.2655L47.2474 59.538C47.1725 58.7888 47.0227 57.9657 46.7989 57.2198L46.7968 57.2129L46.7953 57.2058C46.193 54.4954 45.1393 51.935 43.7091 49.5996C43.5895 49.4387 43.4906 49.2607 43.3993 49.0962L43.3961 49.0905C43.2998 48.9172 43.2113 48.7586 43.107 48.6194L43.1026 48.6137L43.0987 48.6076C43.0746 48.57 43.0505 48.5325 43.0263 48.495C41.6921 46.4202 40.4073 44.4225 40.4073 42.0402C40.4073 36.4584 44.9043 31.9614 50.4861 31.9614C56.0679 31.9614 60.5649 36.4584 60.5649 42.0402C60.5649 44.3575 59.3485 46.3125 58.0549 48.3916C57.9967 48.4853 57.9383 48.5791 57.8798 48.6733C57.7975 48.8358 57.6967 48.977 57.6055 49.1046L57.602 49.1096C57.5057 49.2444 57.42 49.365 57.3521 49.5008L57.3489 49.5072L57.3452 49.5134C55.9097 51.9312 54.7797 54.4944 54.1773 57.2037C54.0255 57.9631 53.874 58.7207 53.7225 59.5539L53.6926 59.7181ZM53.9816 57.1624C53.8297 57.9223 53.6777 58.6822 53.5257 59.5181H47.4465C47.3705 58.7582 47.2185 57.9223 46.9905 57.1624C46.3826 54.4267 45.3187 51.843 43.8749 49.4873C43.7609 49.3353 43.6659 49.1643 43.5709 48.9934C43.4759 48.8224 43.381 48.6514 43.267 48.4994L43.2098 48.4105C41.8633 46.3165 40.6073 44.3631 40.6073 42.0402C40.6073 36.5689 45.0147 32.1614 50.4861 32.1614C55.9574 32.1614 60.3649 36.5689 60.3649 42.0402C60.3649 44.2987 59.1775 46.2079 57.8741 48.3037C57.818 48.3939 57.7616 48.4845 57.7052 48.5754C57.6292 48.7274 57.5342 48.8604 57.4392 48.9934C57.3442 49.1264 57.2492 49.2593 57.1733 49.4113C55.7294 51.843 54.5896 54.4267 53.9816 57.1624Z" fill="#FFCC3E"/>
<path d="M54.285 70.1551H46.686C45.3941 70.1551 44.4062 69.1673 44.4062 67.8754C44.4062 66.5836 45.3941 65.5957 46.686 65.5957H54.285C55.5769 65.5957 56.5648 66.5836 56.5648 67.8754C56.5648 69.1673 55.5769 70.1551 54.285 70.1551Z" fill="black"/>
<path fill-rule="evenodd" clip-rule="evenodd" d="M46.686 69.9551H54.285C55.4664 69.9551 56.3648 69.0568 56.3648 67.8754C56.3648 66.694 55.4664 65.7957 54.285 65.7957H46.686C45.5046 65.7957 44.6063 66.694 44.6063 67.8754C44.6063 69.0568 45.5046 69.9551 46.686 69.9551ZM46.686 70.1551H54.285C55.5769 70.1551 56.5648 69.1673 56.5648 67.8754C56.5648 66.5836 55.5769 65.5957 54.285 65.5957H46.686C45.3941 65.5957 44.4062 66.5836 44.4062 67.8754C44.4062 69.1673 45.3941 70.1551 46.686 70.1551Z" fill="#FFCC3E"/>
</svg>
