<svg width="100" height="100" viewBox="0 0 100 100" fill="none" xmlns="http://www.w3.org/2000/svg">
<circle cx="50" cy="50" r="50" fill="#FFCC3E"/>
<path fill-rule="evenodd" clip-rule="evenodd" d="M50 67C59.3888 67 67 59.3888 67 50C67 40.6112 59.3888 33 50 33C40.6112 33 33 40.6112 33 50C33 59.3888 40.6112 67 50 67ZM50 71C61.598 71 71 61.598 71 50C71 38.402 61.598 29 50 29C38.402 29 29 38.402 29 50C29 61.598 38.402 71 50 71Z" fill="black"/>
<path d="M48 40C48 38.8954 48.8954 38 50 38C51.1046 38 52 38.8954 52 40V50C52 51.1046 51.1046 52 50 52C48.8954 52 48 51.1046 48 50V40Z" fill="black"/>
<path d="M60 49C61.1046 49 62 49.8954 62 51C62 52.1046 61.1046 53 60 53H50C48.8954 53 48 52.1046 48 51C48 49.8954 48.8954 49 50 49H60Z" fill="black"/>
</svg>
