<svg width="100" height="100" viewBox="0 0 100 100" fill="none" xmlns="http://www.w3.org/2000/svg">
<circle cx="50" cy="50" r="50" fill="#FFCC3E"/>
<path fill-rule="evenodd" clip-rule="evenodd" d="M60 35H41C39.3431 35 38 36.3431 38 38V62C38 63.6569 39.3431 65 41 65H60C61.6569 65 63 63.6569 63 62V38C63 36.3431 61.6569 35 60 35ZM41 31C37.134 31 34 34.134 34 38V62C34 65.866 37.134 69 41 69H60C63.866 69 67 65.866 67 62V38C67 34.134 63.866 31 60 31H41Z" fill="black"/>
<path d="M46 43C46 44.1046 45.1046 45 44 45C42.8954 45 42 44.1046 42 43C42 41.8954 42.8954 41 44 41C45.1046 41 46 41.8954 46 43Z" fill="black"/>
<path d="M46 50C46 51.1046 45.1046 52 44 52C42.8954 52 42 51.1046 42 50C42 48.8954 42.8954 48 44 48C45.1046 48 46 48.8954 46 50Z" fill="black"/>
<path d="M46 57C46 58.1046 45.1046 59 44 59C42.8954 59 42 58.1046 42 57C42 55.8954 42.8954 55 44 55C45.1046 55 46 55.8954 46 57Z" fill="black"/>
<path d="M48 43C48 41.8954 48.8954 41 50 41H57C58.1046 41 59 41.8954 59 43C59 44.1046 58.1046 45 57 45H50C48.8954 45 48 44.1046 48 43Z" fill="black"/>
<path d="M48 50C48 48.8954 48.8954 48 50 48H57C58.1046 48 59 48.8954 59 50C59 51.1046 58.1046 52 57 52H50C48.8954 52 48 51.1046 48 50Z" fill="black"/>
<path d="M48 57C48 55.8954 48.8954 55 50 55H57C58.1046 55 59 55.8954 59 57C59 58.1046 58.1046 59 57 59H50C48.8954 59 48 58.1046 48 57Z" fill="black"/>
</svg>
