<svg width="100" height="100" viewBox="0 0 100 100" fill="none" xmlns="http://www.w3.org/2000/svg">
<circle cx="50" cy="50" r="50" fill="#FFCC3E"/>
<path fill-rule="evenodd" clip-rule="evenodd" d="M50 66C58.2843 66 65 59.2843 65 51C65 42.7157 58.2843 36 50 36C41.7157 36 35 42.7157 35 51C35 59.2843 41.7157 66 50 66ZM50 70C60.4934 70 69 61.4934 69 51C69 40.5066 60.4934 32 50 32C39.5066 32 31 40.5066 31 51C31 61.4934 39.5066 70 50 70Z" fill="black"/>
<path d="M58 34C58 38.4183 54.4183 42 50 42C45.5817 42 42 38.4183 42 34C42 29.5817 45.5817 26 50 26C54.4183 26 58 29.5817 58 34Z" fill="#FFCC3E"/>
<path fill-rule="evenodd" clip-rule="evenodd" d="M50 38C52.2091 38 54 36.2091 54 34C54 31.7909 52.2091 30 50 30C47.7909 30 46 31.7909 46 34C46 36.2091 47.7909 38 50 38ZM50 42C54.4183 42 58 38.4183 58 34C58 29.5817 54.4183 26 50 26C45.5817 26 42 29.5817 42 34C42 38.4183 45.5817 42 50 42Z" fill="black"/>
<path d="M43 60C43 64.4183 39.4183 68 35 68C30.5817 68 27 64.4183 27 60C27 55.5817 30.5817 52 35 52C39.4183 52 43 55.5817 43 60Z" fill="#FFCC3E"/>
<path fill-rule="evenodd" clip-rule="evenodd" d="M35 64C37.2091 64 39 62.2091 39 60C39 57.7909 37.2091 56 35 56C32.7909 56 31 57.7909 31 60C31 62.2091 32.7909 64 35 64ZM35 68C39.4183 68 43 64.4183 43 60C43 55.5817 39.4183 52 35 52C30.5817 52 27 55.5817 27 60C27 64.4183 30.5817 68 35 68Z" fill="black"/>
<path d="M74 60C74 64.4183 70.4183 68 66 68C61.5817 68 58 64.4183 58 60C58 55.5817 61.5817 52 66 52C70.4183 52 74 55.5817 74 60Z" fill="#FFCC3E"/>
<path fill-rule="evenodd" clip-rule="evenodd" d="M66 64C68.2091 64 70 62.2091 70 60C70 57.7909 68.2091 56 66 56C63.7909 56 62 57.7909 62 60C62 62.2091 63.7909 64 66 64ZM66 68C70.4183 68 74 64.4183 74 60C74 55.5817 70.4183 52 66 52C61.5817 52 58 55.5817 58 60C58 64.4183 61.5817 68 66 68Z" fill="black"/>
</svg>
