<svg width="100" height="100" viewBox="0 0 100 100" fill="none" xmlns="http://www.w3.org/2000/svg">
<circle cx="50" cy="50" r="50" fill="#FFCC3E"/>
<path d="M56.6411 35.9964C56.6411 36.3659 56.6159 36.7354 56.5697 37.1007C56.5907 36.9538 56.6117 36.8026 56.6285 36.6557C56.5277 37.3863 56.3346 38.0959 56.0532 38.7761C56.1078 38.6417 56.1666 38.5074 56.2212 38.373C55.9399 39.0364 55.5788 39.6578 55.138 40.2289C55.2261 40.1155 55.3143 40.0022 55.4025 39.8888C54.9658 40.4515 54.4578 40.9595 53.8951 41.3962C54.0085 41.308 54.1219 41.2199 54.2352 41.1317C53.6642 41.5684 53.0428 41.9337 52.3794 42.215C52.5138 42.1604 52.6481 42.1016 52.7825 42.047C52.1023 42.3283 51.3927 42.5215 50.6622 42.6223C50.8091 42.6013 50.9603 42.5803 51.1072 42.5635C50.3725 42.6601 49.6335 42.6601 48.8987 42.5635C49.0457 42.5845 49.1968 42.6055 49.3438 42.6223C48.6132 42.5215 47.9036 42.3283 47.2235 42.047C47.3578 42.1016 47.4922 42.1604 47.6265 42.215C46.9631 41.9336 46.3418 41.5725 45.7707 41.1317C45.8841 41.2199 45.9974 41.308 46.1108 41.3962C45.5482 40.9595 45.0402 40.4514 44.6035 39.8888C44.6916 40.0022 44.7798 40.1155 44.868 40.2289C44.4313 39.6579 44.0661 39.0364 43.7848 38.373C43.8393 38.5074 43.8981 38.6417 43.9527 38.7761C43.6714 38.0959 43.4783 37.3862 43.3775 36.6557C43.3985 36.8026 43.4195 36.9538 43.4363 37.1007C43.3397 36.3659 43.3397 35.627 43.4363 34.8921C43.4153 35.0391 43.3943 35.1902 43.3775 35.3372C43.4783 34.6066 43.6714 33.897 43.9527 33.2168C43.8981 33.3511 43.8393 33.4855 43.7848 33.6199C44.0661 32.9564 44.4272 32.335 44.868 31.7639C44.7798 31.8773 44.6916 31.9907 44.6035 32.1041C45.0401 31.5414 45.5482 31.0334 46.1108 30.5966C45.9974 30.6848 45.8841 30.773 45.7707 30.8612C46.3417 30.4245 46.9631 30.0592 47.6265 29.7779C47.4922 29.8325 47.3578 29.8913 47.2235 29.9458C47.9036 29.6645 48.6132 29.4714 49.3438 29.3706C49.1968 29.3916 49.0457 29.4126 48.8987 29.4294C49.6335 29.3328 50.3724 29.3328 51.1072 29.4294C50.9603 29.4084 50.8091 29.3874 50.6622 29.3706C51.3927 29.4714 52.1023 29.6645 52.7825 29.9458C52.6481 29.8913 52.5138 29.8325 52.3794 29.7779C53.0428 30.0592 53.6642 30.4203 54.2352 30.8612C54.1219 30.773 54.0085 30.6848 53.8951 30.5966C54.4578 31.0333 54.9658 31.5414 55.4025 32.1041C55.3143 31.9907 55.2261 31.8773 55.138 31.7639C55.5746 32.335 55.9399 32.9564 56.2212 33.6199C56.1666 33.4855 56.1078 33.3511 56.0532 33.2168C56.3346 33.897 56.5277 34.6066 56.6285 35.3372C56.6075 35.1902 56.5865 35.0391 56.5697 34.8921C56.6159 35.2574 56.6369 35.6269 56.6411 35.9964C56.6453 36.874 57.4094 37.718 58.3205 37.676C59.2274 37.634 60.0042 36.937 60 35.9964C59.9916 33.9852 59.387 31.9277 58.203 30.2902C57.8839 29.8493 57.5438 29.4168 57.1659 29.0263C56.7838 28.6316 56.364 28.2915 55.9273 27.9598C55.1337 27.3551 54.2478 26.91 53.3073 26.5657C49.5159 25.1759 44.9434 26.4146 42.3783 29.5386C42.0256 29.9669 41.6897 30.4119 41.4042 30.8906C41.1187 31.3651 40.8961 31.8689 40.6904 32.3812C40.3041 33.3301 40.1068 34.3378 40.027 35.3582C39.8717 37.3568 40.3923 39.4437 41.4335 41.1568C42.437 42.8112 43.9527 44.2304 45.7246 45.0324C46.2452 45.2675 46.7785 45.4859 47.3327 45.6412C47.8827 45.7924 48.4412 45.8764 49.0079 45.9436C50.0408 46.0653 51.0947 45.9813 52.1149 45.7756C55.9903 44.9862 59.2359 41.6481 59.8363 37.7306C59.9244 37.1596 59.9916 36.5885 59.9916 36.0091C59.9958 35.1315 59.2149 34.2875 58.3121 34.3295C57.4053 34.3589 56.6411 35.0559 56.6411 35.9964Z" fill="black"/>
<path d="M63.8152 63.5559H39.4392C38.3608 63.5559 37.2824 63.5654 36.204 63.5559C36.0852 63.5559 35.9664 63.5464 35.8524 63.5321C36.0187 63.5559 36.1897 63.5796 36.356 63.5986C36.166 63.5701 35.9854 63.5179 35.8097 63.4466C35.9617 63.5084 36.1137 63.5749 36.2657 63.6366C36.0757 63.5559 35.8999 63.4513 35.7336 63.3231C35.8619 63.4228 35.9902 63.5226 36.1185 63.6224C35.9759 63.5036 35.8429 63.3753 35.7289 63.2328C35.8287 63.3611 35.9284 63.4893 36.0282 63.6176C35.8999 63.4513 35.8002 63.2756 35.7146 63.0855C35.7764 63.2376 35.8429 63.3896 35.9047 63.5416C35.8334 63.3658 35.7859 63.1805 35.7526 62.9953C35.7764 63.1615 35.8002 63.3326 35.8192 63.4988C35.7431 62.924 35.7954 62.3159 35.7954 61.7363V59.703C35.7954 59.1947 35.8239 58.6912 35.8904 58.1876C35.8667 58.3539 35.8429 58.5249 35.8239 58.6912C35.9569 57.7173 36.2135 56.7624 36.5983 55.855C36.5365 56.007 36.47 56.1591 36.4083 56.3111C36.7788 55.4465 37.2539 54.634 37.8288 53.8882C37.729 54.0164 37.6292 54.1447 37.5295 54.273C38.1043 53.5366 38.7647 52.8715 39.5058 52.2967C39.3775 52.3964 39.2492 52.4962 39.121 52.596C39.8668 52.0211 40.6792 51.5461 41.5439 51.1755C41.3918 51.2372 41.2398 51.3037 41.0878 51.3655C41.9952 50.9854 42.9453 50.7242 43.9239 50.5911C43.7577 50.6149 43.5866 50.6386 43.4204 50.6576C44.1235 50.5674 44.8218 50.5626 45.5297 50.5626H54.2235C55.0074 50.5626 55.7865 50.5579 56.5704 50.6576C56.4041 50.6339 56.2331 50.6101 56.0668 50.5911C57.0407 50.7241 57.9956 50.9807 58.903 51.3655C58.7509 51.3037 58.5989 51.2372 58.4469 51.1755C59.3115 51.546 60.1239 52.0211 60.8698 52.596C60.7415 52.4962 60.6133 52.3964 60.485 52.2967C61.2214 52.8715 61.8865 53.5319 62.4613 54.273C62.3615 54.1447 62.2618 54.0164 62.162 53.8882C62.7368 54.634 63.2119 55.4465 63.5825 56.3111C63.5207 56.1591 63.4542 56.007 63.3925 55.855C63.7725 56.7624 64.0338 57.7126 64.1668 58.6912C64.1431 58.5249 64.1193 58.3539 64.1003 58.1876C64.1906 58.9049 64.1954 59.6176 64.1954 60.3396V62.6912C64.1954 62.962 64.2049 63.2328 64.1716 63.4988C64.1954 63.3326 64.2191 63.1615 64.2381 62.9953C64.2096 63.1853 64.1573 63.3658 64.0861 63.5416C64.1478 63.3896 64.2144 63.2375 64.2761 63.0855C64.1954 63.2756 64.0908 63.4513 63.9626 63.6176C64.0623 63.4893 64.1621 63.3611 64.2619 63.2328C64.1431 63.3753 64.0148 63.5083 63.8723 63.6224C64.0006 63.5226 64.1288 63.4228 64.2571 63.3231C64.0908 63.4513 63.9151 63.5511 63.725 63.6366C63.877 63.5749 64.0291 63.5083 64.1811 63.4466C64.0053 63.5178 63.82 63.5654 63.6348 63.5986C63.801 63.5749 63.9721 63.5511 64.1383 63.5321C64.0338 63.5463 63.9244 63.5511 63.8152 63.5559C63.3258 63.5606 62.8224 63.7649 62.4708 64.1117C62.143 64.4395 61.8912 64.9811 61.915 65.4562C61.9625 66.4728 62.7511 67.3707 63.8152 67.3565C65.6632 67.328 67.2881 66.1213 67.8296 64.3493C68.0434 63.6462 67.9959 62.8908 67.9959 62.1687C67.9959 60.5154 68.0482 58.8764 67.7631 57.2374C67.3451 54.8383 66.1384 52.5816 64.4851 50.8096C62.8319 49.0377 60.6085 47.7359 58.257 47.1563C56.9078 46.8237 55.549 46.7715 54.1714 46.7715H45.7435C44.3326 46.7715 42.9311 46.838 41.5581 47.2038C39.2255 47.8214 37.0307 49.1374 35.4106 50.9236C33.7764 52.7242 32.5934 54.9855 32.2087 57.3988C31.9521 59.0188 32.0044 60.6436 32.0044 62.2778C32.0044 63.0284 31.9616 63.8123 32.2324 64.5297C32.584 65.4513 33.1446 66.1782 33.9664 66.7246C34.6078 67.1474 35.4201 67.3517 36.1802 67.3612C36.5508 67.3659 36.9214 67.3612 37.2919 67.3612H63.82C64.8129 67.3612 65.7678 66.4871 65.7203 65.4609C65.6728 64.4252 64.8841 63.5559 63.8152 63.5559Z" fill="black"/>
</svg>
