<svg width="139" height="70" viewBox="0 0 139 70" fill="none" xmlns="http://www.w3.org/2000/svg">
<path d="M34.7499 64.0844C50.9509 64.0844 64.0844 50.9509 64.0844 34.7499C64.0844 18.549 50.9509 5.41553 34.7499 5.41553C18.549 5.41553 5.41553 18.549 5.41553 34.7499C5.41553 50.9509 18.549 64.0844 34.7499 64.0844Z" fill="#FFCC3D"/>
<path d="M28.2202 34.8673C28.2202 40.428 23.7036 44.967 18.1066 45.084V45.0861L17.8547 45.0883H15.7444V42.7174H17.7739C22.1634 42.7075 25.7186 39.1851 25.7186 34.8673C25.7186 30.5494 22.1569 27.0271 17.7818 27.0214H15.7444V24.6484H17.8807C23.5802 24.6484 28.2202 29.2331 28.2202 34.8673V34.8673Z" fill="#161616"/>
<path d="M14.2671 24.6475H11.8486V45.0694H14.2671V24.6475Z" fill="#161616"/>
<path d="M40.7068 34.1756H38.2623L38.2847 33.9045C38.5128 31.346 39.6935 28.9774 41.6104 27.2301C43.5396 25.4729 46.0483 24.5068 48.6725 24.5068C51.2967 24.5068 53.7816 25.465 55.7086 27.2066L55.9042 27.3842L54.1649 29.078L53.9873 28.9224C52.5222 27.6311 50.6356 26.9197 48.6725 26.9197C44.5868 26.9197 41.1731 29.9441 40.7314 33.9551L40.7068 34.1763V34.1756Z" fill="#161616"/>
<path d="M36.0264 30.1701L36.0344 30.2101L36.03 30.2522C36.0279 30.27 35.9759 30.7202 35.8871 31.1169L35.6172 32.0615L35.2888 33.0796L33.535 39.4351L32.7974 42.0135C32.7548 42.1469 32.713 42.2846 32.6747 42.4316C32.6444 42.5415 32.6206 42.6449 32.5982 42.7462L32.5823 42.8197C32.5239 43.0809 32.5679 43.2121 32.5982 43.2342C32.6083 43.2342 32.6711 43.2264 32.7657 43.1443C32.7859 43.1265 32.7981 43.1087 32.7996 43.1065C32.8299 43.0744 32.8479 43.053 32.8638 43.0288L32.9988 42.8333C33.1099 42.6699 33.2124 42.5065 33.307 42.341C33.4722 42.0578 33.6151 41.7709 33.7104 41.5341L33.7588 41.4342C33.8432 41.2587 34.0229 41.1131 34.1918 41.0839C34.2041 41.0817 34.2178 41.0796 34.2322 41.0782C34.3311 41.0703 34.4177 41.0803 34.5065 41.1039C34.5729 41.126 34.6674 41.1595 34.7641 41.2152L34.8082 41.2473C35.0175 41.4385 35.0463 41.5619 35.0521 41.6161L35.0543 41.6361C35.0564 41.6896 35.0543 41.7538 35.0463 41.8252C35.0405 41.8673 35.0384 41.8708 35.0341 41.8951L35.0283 41.9208C35.0283 41.9265 35.0182 41.9664 35.0138 41.9807C34.907 42.3574 34.7475 42.7041 34.4798 43.1479C33.9435 44.0426 33.1778 44.7282 32.4358 44.9808C32.329 45.0186 32.202 45.0507 32.0649 45.0707C31.9501 45.0928 31.8231 45.1042 31.6939 45.1042C31.5647 45.1042 31.424 45.0899 31.2926 45.0643C31.2746 45.0621 31.2565 45.0586 31.2363 45.0521C31.0913 45.02 30.9563 44.9701 30.835 44.9066C30.7946 44.8866 30.7686 44.8709 30.7427 44.8545L30.7087 44.8324C30.2937 44.5656 30.0274 44.0611 30.0274 43.5232C30.0253 43.2121 30.0635 42.9075 30.1422 42.615L30.2735 42.1205L32.7967 32.8677L32.9179 32.3041C32.9324 32.2363 32.9461 32.033 32.8494 31.9153C32.783 31.8332 32.6617 31.7918 32.4885 31.7897L31.7386 31.7918C31.5005 31.7975 31.3453 31.8097 31.3417 31.8118L31.0653 31.8339L31.0754 30.3635L31.6658 30.3392C32.3312 30.325 33.9009 30.2279 35.5941 29.959C35.9225 29.9233 36.0055 30.0745 36.0257 30.168L36.0264 30.1701Z" fill="#161616"/>
<path d="M36.8572 26.4113C36.8572 27.4472 36.0048 28.2898 34.9568 28.2898C33.9089 28.2898 33.058 27.4472 33.058 26.4113C33.058 25.3753 33.9103 24.5342 34.9568 24.5342C36.0033 24.5342 36.8572 25.3768 36.8572 26.4113Z" fill="#161616"/>
<path d="M56.1374 37.636H58.7111L58.6064 37.9628C57.2178 42.2464 53.2274 45.1273 48.6718 45.1273C43.2863 45.1273 38.8239 41.1362 38.2941 35.8445L38.266 35.5698H40.7191L40.7451 35.7889C41.2366 39.7357 44.6453 42.7122 48.6718 42.7122C51.9369 42.7122 54.8412 40.7816 56.0724 37.7908L56.1367 37.6353L56.1374 37.636Z" fill="#161616"/>
<path d="M59.1217 33.6768H49.1453V36.0676H59.1217V33.6768Z" fill="#161616"/>
<path d="M10.3889 55.8479C4.99777 49.6987 2.14727 41.7292 2.41549 33.5557C2.68371 25.3823 6.05058 17.6168 11.8333 11.8342C17.6159 6.05156 25.3815 2.68474 33.5551 2.41652C41.7286 2.1483 49.6982 4.99877 55.8476 10.3898L57.5431 8.69429C50.9435 2.85197 42.3633 -0.251913 33.5533 0.0160064C24.7433 0.283926 16.3675 3.90346 10.1351 10.136C3.90276 16.3686 0.283527 24.7444 0.0159636 33.5543C-0.2516 42.3642 2.85268 50.9442 8.69534 57.5435L10.3889 55.8479Z" fill="url(#paint0_linear_2129_362)"/>
<path d="M60.5532 11.2095L58.8413 12.9214C64.362 19.1203 67.3037 27.1954 67.0638 35.4928C66.824 43.7902 63.4207 51.6819 57.5512 57.5515C51.6816 63.4211 43.79 66.8243 35.4926 67.0642C27.1953 67.304 19.1202 64.3623 12.9214 58.8416L11.2095 60.5535C17.8628 66.5297 26.5543 69.7272 35.4942 69.4877C44.4342 69.2482 52.942 65.5899 59.2658 59.2661C65.5896 52.9423 69.2479 44.4344 69.4874 35.4944C69.7269 26.5543 66.5293 17.8628 60.5532 11.2095V11.2095Z" fill="url(#paint1_linear_2129_362)"/>
<path d="M75.8182 23.3682H78.2163C79.732 23.3682 80.4762 24.2175 80.4762 25.7768V30.7046C80.4762 32.2639 79.732 33.1133 78.2163 33.1133H75.8182V23.3689V23.3682ZM77.334 24.7604V31.721H78.1882C78.6704 31.721 78.9598 31.4705 78.9598 30.774V25.7068C78.9598 25.011 78.6704 24.7604 78.1882 24.7604H77.334V24.7604Z" fill="#E6E6E5"/>
<path d="M81.4412 23.3682H82.9569V33.1126H81.4412V23.3682Z" fill="#E6E6E5"/>
<path d="M86.3332 27.6835H88.4558V30.7738C88.4558 32.3331 87.6843 33.2242 86.1959 33.2242C84.7074 33.2242 83.9352 32.3331 83.9352 30.7738V25.7066C83.9352 24.1473 84.7074 23.2568 86.1959 23.2568C87.6843 23.2568 88.4558 24.148 88.4558 25.7066V26.6529H87.0228V25.6089C87.0228 24.9131 86.7193 24.6484 86.2372 24.6484C85.7551 24.6484 85.4516 24.9131 85.4516 25.6089V30.8707C85.4516 31.5665 85.7551 31.8178 86.2372 31.8178C86.7193 31.8178 87.0228 31.5672 87.0228 30.8707V29.075H86.3339V27.6828L86.3332 27.6835Z" fill="#E6E6E5"/>
<path d="M89.4341 23.3682H90.9498V33.1126H89.4341V23.3682Z" fill="#E6E6E5"/>
<path d="M91.6115 23.3682H96.2975V24.7604H94.7123V33.1133H93.1966V24.7604H91.6115V23.3682Z" fill="#E6E6E5"/>
<path d="M101.341 33.1131H99.8117L99.5496 31.345H97.6891L97.427 33.1131H96.0353L97.5791 23.3687H99.7984L101.342 33.1131H101.341ZM97.8818 30.0228H99.3429L98.6127 25.095L97.8825 30.0228H97.8818Z" fill="#E6E6E5"/>
<path d="M102.044 23.3682H103.56V31.721H106.055V33.1133H102.044V23.3689V23.3682Z" fill="#E6E6E5"/>
<path d="M75.8182 37.3374H77.334V47.0818H75.8182V37.3374Z" fill="#E6E6E5"/>
<path d="M79.7874 40.0243V47.0818H78.423V37.3374H80.3248L81.882 43.1705V37.3374H83.2323V47.0818H81.6752L79.7874 40.0243Z" fill="#E6E6E5"/>
<path d="M86.3611 37.2266C87.8356 37.2266 88.5938 38.1177 88.5938 39.6763V39.9828H87.1607V39.5793C87.1607 38.8835 86.8853 38.6188 86.4025 38.6188C85.9197 38.6188 85.6443 38.8835 85.6443 39.5793C85.6443 41.5838 88.6071 41.9597 88.6071 44.7442C88.6071 46.3035 87.8356 47.1947 86.3471 47.1947C84.8587 47.1947 84.0872 46.3035 84.0872 44.7442V44.1454H85.5202V44.8412C85.5202 45.537 85.8237 45.7882 86.3058 45.7882C86.7879 45.7882 87.0913 45.5377 87.0913 44.8412C87.0913 42.8367 84.1278 42.4608 84.1278 39.6763C84.1278 38.117 84.886 37.2266 86.3604 37.2266H86.3611Z" fill="#E6E6E5"/>
<path d="M89.4755 37.3374H90.9912V47.0818H89.4755V37.3374Z" fill="#E6E6E5"/>
<path d="M94.3675 41.6532H96.4901V44.7435C96.4901 46.3028 95.7186 47.1939 94.2302 47.1939C92.7417 47.1939 91.9695 46.3028 91.9695 44.7435V39.6763C91.9695 38.117 92.7417 37.2266 94.2302 37.2266C95.7186 37.2266 96.4901 38.1177 96.4901 39.6763V40.6233H95.0571V39.5793C95.0571 38.8835 94.7536 38.6188 94.2715 38.6188C93.7894 38.6188 93.4859 38.8835 93.4859 39.5793V44.8412C93.4859 45.537 93.7894 45.7882 94.2715 45.7882C94.7536 45.7882 95.0571 45.5377 95.0571 44.8412V43.0455H94.3682V41.6532H94.3675Z" fill="#E6E6E5"/>
<path d="M98.9849 47.0823H97.4691V37.3379H98.9849V41.514H100.707V37.3379H102.251V47.0823H100.707V42.9062H98.9849V47.0823Z" fill="#E6E6E5"/>
<path d="M102.912 37.3374H107.598V38.7297H106.013V47.0825H104.497V38.7297H102.912V37.3374V37.3374Z" fill="#E6E6E5"/>
<path d="M112.669 41.6532H114.792V44.7435C114.792 46.3028 114.02 47.1939 112.532 47.1939C111.044 47.1939 110.271 46.3028 110.271 44.7435V39.6763C110.271 38.117 111.044 37.2266 112.532 37.2266C114.02 37.2266 114.792 38.1177 114.792 39.6763V40.6233H113.359V39.5793C113.359 38.8835 113.056 38.6188 112.573 38.6188C112.091 38.6188 111.788 38.8835 111.788 39.5793V44.8412C111.788 45.537 112.091 45.7882 112.573 45.7882C113.056 45.7882 113.359 45.5377 113.359 44.8412V43.0455H112.67V41.6532H112.669Z" fill="#E6E6E5"/>
<path d="M120.663 47.0823H119.133L118.871 45.3142H117.011L116.749 47.0823H115.357L116.901 37.3379H119.12L120.664 47.0823H120.663ZM117.203 43.992H118.664L117.934 39.0642L117.204 43.992H117.203Z" fill="#E6E6E5"/>
<path d="M124.578 44.2562L125.611 37.3374H127.72V47.0818H126.287V40.0936L125.239 47.0818H123.806L122.676 40.1906V47.0818H121.353V37.3374H123.461L124.578 44.2562V44.2562Z" fill="#E6E6E5"/>
<path d="M130.338 41.4439H132.419V42.8362H130.338V45.69H132.957V47.0823H128.822V37.3379H132.957V38.7302H130.338V41.4446V41.4439Z" fill="#E6E6E5"/>
<path d="M135.934 37.2266C137.408 37.2266 138.166 38.1177 138.166 39.6763V39.9828H136.733V39.5793C136.733 38.8835 136.458 38.6188 135.975 38.6188C135.492 38.6188 135.217 38.8835 135.217 39.5793C135.217 41.5838 138.18 41.9597 138.18 44.7442C138.18 46.3035 137.408 47.1947 135.92 47.1947C134.431 47.1947 133.66 46.3035 133.66 44.7442V44.1454H135.093V44.8412C135.093 45.537 135.396 45.7882 135.878 45.7882C136.36 45.7882 136.664 45.5377 136.664 44.8412C136.664 42.8367 133.7 42.4608 133.7 39.6763C133.7 38.117 134.458 37.2266 135.933 37.2266H135.934Z" fill="#E6E6E5"/>
<defs>
<linearGradient id="paint0_linear_2129_362" x1="45.2374" y1="-2.00748" x2="-1.5073" y2="44.9154" gradientUnits="userSpaceOnUse">
<stop stop-color="#E7AD22"/>
<stop offset="0.05" stop-color="#E9B128"/>
<stop offset="0.27" stop-color="#F1C043"/>
<stop offset="0.51" stop-color="#F7CA56"/>
<stop offset="0.75" stop-color="#FAD161"/>
<stop offset="1" stop-color="#FBD365"/>
</linearGradient>
<linearGradient id="paint1_linear_2129_362" x1="71.0302" y1="24.4679" x2="24.103" y2="69.9528" gradientUnits="userSpaceOnUse">
<stop stop-color="#8C8C8C"/>
<stop offset="1" stop-color="#D0D0CF"/>
</linearGradient>
</defs>
</svg>
